<svg xmlns="http://www.w3.org/2000/svg" viewBox="0 0 400 300" preserveAspectRatio="xMidYMid slice" role="img" aria-label="Class timetable grid with attendance marks">
  <rect width="400" height="300" fill="#EFF6FF"/>
  <rect x="18" y="20" width="364" height="182" rx="12" fill="#FFFFFF" stroke="#BFDBFE" stroke-width="1.5"/>
  <path d="M18 32a12 12 0 0 1 12-12h340a12 12 0 0 1 12 12v22H18z" fill="#0F2A57"/>
  <rect x="32" y="33" width="74" height="7" rx="3.5" fill="#93C5FD"/>
  <g fill="#3B82F6" opacity=".9">
    <rect x="300" y="31" width="30" height="11" rx="5.5"/>
    <rect x="338" y="31" width="30" height="11" rx="5.5" fill="#1D4ED8"/>
  </g>

  <g font-family="Inter, system-ui, sans-serif" font-size="8" fill="#64748B">
    <rect x="32" y="64" width="34" height="5" rx="2.5" fill="#BFDBFE"/>
    <rect x="86" y="64" width="34" height="5" rx="2.5" fill="#BFDBFE"/>
    <rect x="140" y="64" width="34" height="5" rx="2.5" fill="#BFDBFE"/>
    <rect x="194" y="64" width="34" height="5" rx="2.5" fill="#BFDBFE"/>
    <rect x="248" y="64" width="34" height="5" rx="2.5" fill="#BFDBFE"/>
    <rect x="302" y="64" width="34" height="5" rx="2.5" fill="#BFDBFE"/>
  </g>

  <g stroke="#DBEAFE" stroke-width="1">
    <path d="M32 80h336M32 108h336M32 136h336M32 164h336"/>
    <path d="M80 80v104M134 80v104M188 80v104M242 80v104M296 80v104"/>
  </g>

  <rect x="34" y="84" width="44" height="20" rx="5" fill="#1D4ED8"/>
  <rect x="88" y="84" width="44" height="20" rx="5" fill="#DBEAFE"/>
  <rect x="196" y="84" width="44" height="20" rx="5" fill="#3B82F6"/>
  <rect x="304" y="84" width="44" height="20" rx="5" fill="#DBEAFE"/>

  <rect x="88" y="112" width="44" height="20" rx="5" fill="#3B82F6"/>
  <rect x="142" y="112" width="44" height="20" rx="5" fill="#DBEAFE"/>
  <rect x="250" y="112" width="44" height="20" rx="5" fill="#1D4ED8"/>

  <rect x="34" y="140" width="44" height="20" rx="5" fill="#DBEAFE"/>
  <rect x="142" y="140" width="44" height="20" rx="5" fill="#1D4ED8"/>
  <rect x="196" y="140" width="44" height="20" rx="5" fill="#DBEAFE"/>
  <rect x="304" y="140" width="44" height="20" rx="5" fill="#3B82F6"/>

  <g stroke="#1D4ED8" stroke-width="2.2" fill="none" stroke-linecap="round" stroke-linejoin="round">
    <path d="M40 174l4 4 8-9"/>
    <path d="M94 174l4 4 8-9"/>
    <path d="M202 174l4 4 8-9"/>
    <path d="M310 174l4 4 8-9"/>
  </g>
  <g stroke="#93C5FD" stroke-width="2.2" stroke-linecap="round">
    <path d="M148 173l9 9M157 173l-9 9"/>
    <path d="M256 173l9 9M265 173l-9 9"/>
  </g>

  <path d="M0 204h400v96H0z" fill="#0F2A57" opacity=".05"/>
  <path d="M0 232c80 12 150-10 220-2s120 12 180 2v68H0z" fill="#3B82F6" opacity=".07"/>
</svg>
