<svg xmlns="http://www.w3.org/2000/svg" viewBox="0 0 400 300" preserveAspectRatio="xMidYMid slice" role="img" aria-label="Room availability calendar with booking blocks">
  <rect width="400" height="300" fill="#F5F8FF"/>
  <rect x="18" y="20" width="364" height="184" rx="12" fill="#FFFFFF" stroke="#BFDBFE" stroke-width="1.5"/>
  <path d="M18 32a12 12 0 0 1 12-12h340a12 12 0 0 1 12 12v22H18z" fill="#0F2A57"/>
  <rect x="32" y="33" width="88" height="7" rx="3.5" fill="#93C5FD"/>
  <circle cx="330" cy="37" r="6" fill="#3B82F6"/>
  <circle cx="350" cy="37" r="6" fill="#1D4ED8"/>

  <g fill="#BFDBFE">
    <rect x="96" y="64" width="24" height="5" rx="2.5"/>
    <rect x="136" y="64" width="24" height="5" rx="2.5"/>
    <rect x="176" y="64" width="24" height="5" rx="2.5"/>
    <rect x="216" y="64" width="24" height="5" rx="2.5"/>
    <rect x="256" y="64" width="24" height="5" rx="2.5"/>
    <rect x="296" y="64" width="24" height="5" rx="2.5"/>
    <rect x="336" y="64" width="24" height="5" rx="2.5"/>
  </g>

  <g stroke="#DBEAFE" stroke-width="1">
    <path d="M32 80h336M32 108h336M32 136h336M32 164h336M32 186h336"/>
    <path d="M92 80v106M132 80v106M172 80v106M212 80v106M252 80v106M292 80v106M332 80v106"/>
  </g>

  <g fill="#DBEAFE">
    <rect x="34" y="88" width="50" height="6" rx="3"/>
    <rect x="34" y="116" width="50" height="6" rx="3"/>
    <rect x="34" y="144" width="50" height="6" rx="3"/>
    <rect x="34" y="170" width="50" height="6" rx="3"/>
  </g>

  <rect x="94" y="84" width="76" height="18" rx="9" fill="#1D4ED8"/>
  <rect x="104" y="90" width="42" height="5" rx="2.5" fill="#DBEAFE"/>
  <rect x="214" y="84" width="116" height="18" rx="9" fill="#3B82F6"/>
  <rect x="224" y="90" width="60" height="5" rx="2.5" fill="#EFF6FF"/>

  <rect x="134" y="112" width="76" height="18" rx="9" fill="#3B82F6"/>
  <rect x="144" y="118" width="40" height="5" rx="2.5" fill="#EFF6FF"/>
  <rect x="254" y="112" width="116" height="18" rx="9" fill="#0F2A57"/>
  <rect x="264" y="118" width="52" height="5" rx="2.5" fill="#93C5FD"/>

  <rect x="94" y="140" width="116" height="18" rx="9" fill="#0F2A57"/>
  <rect x="104" y="146" width="56" height="5" rx="2.5" fill="#93C5FD"/>
  <rect x="294" y="140" width="76" height="18" rx="9" fill="#1D4ED8"/>
  <rect x="304" y="146" width="40" height="5" rx="2.5" fill="#DBEAFE"/>

  <rect x="174" y="168" width="116" height="14" rx="7" fill="#BFDBFE"/>
  <rect x="94" y="168" width="36" height="14" rx="7" fill="#EFF6FF" stroke="#BFDBFE"/>

  <path d="M0 206h400v94H0z" fill="#0F2A57" opacity=".05"/>
  <path d="M0 234c100 10 150-12 230-4s110 14 170 6v64H0z" fill="#1D4ED8" opacity=".07"/>
</svg>
