<svg xmlns="http://www.w3.org/2000/svg" viewBox="0 0 400 300" preserveAspectRatio="xMidYMid slice" role="img" aria-label="Retrieval pipeline from documents through an index and model to a grounded answer">
  <rect width="400" height="300" fill="#F5F8FF"/>

  <g>
    <rect x="34" y="46" width="46" height="58" rx="5" fill="#FFFFFF" stroke="#BFDBFE" stroke-width="1.5"/>
    <rect x="26" y="54" width="46" height="58" rx="5" fill="#FFFFFF" stroke="#BFDBFE" stroke-width="1.5"/>
    <rect x="18" y="62" width="46" height="58" rx="5" fill="#FFFFFF" stroke="#1D4ED8" stroke-width="1.5"/>
    <g fill="#DBEAFE">
      <rect x="26" y="74" width="30" height="4" rx="2"/>
      <rect x="26" y="84" width="24" height="4" rx="2"/>
      <rect x="26" y="94" width="30" height="4" rx="2"/>
      <rect x="26" y="104" width="18" height="4" rx="2"/>
    </g>
    <rect x="26" y="74" width="16" height="4" rx="2" fill="#3B82F6"/>
  </g>

  <path d="M70 91h30" stroke="#BFDBFE" stroke-width="2" stroke-linecap="round"/>
  <path d="M94 86l6 5-6 5" fill="none" stroke="#3B82F6" stroke-width="2" stroke-linecap="round" stroke-linejoin="round"/>

  <rect x="104" y="52" width="76" height="78" rx="8" fill="#FFFFFF" stroke="#BFDBFE" stroke-width="1.5"/>
  <rect x="104" y="52" width="76" height="20" rx="8" fill="#0F2A57"/>
  <path d="M104 66h76v6h-76z" fill="#0F2A57"/>
  <rect x="116" y="59" width="34" height="6" rx="3" fill="#93C5FD"/>
  <g fill="#DBEAFE">
    <rect x="116" y="82" width="12" height="12" rx="3"/>
    <rect x="134" y="82" width="12" height="12" rx="3"/>
    <rect x="152" y="82" width="12" height="12" rx="3"/>
    <rect x="116" y="100" width="12" height="12" rx="3"/>
    <rect x="152" y="100" width="12" height="12" rx="3"/>
  </g>
  <rect x="134" y="100" width="12" height="12" rx="3" fill="#3B82F6"/>
  <rect x="152" y="82" width="12" height="12" rx="3" fill="#1D4ED8"/>

  <path d="M184 91h30" stroke="#BFDBFE" stroke-width="2" stroke-linecap="round"/>
  <path d="M208 86l6 5-6 5" fill="none" stroke="#3B82F6" stroke-width="2" stroke-linecap="round" stroke-linejoin="round"/>

  <rect x="218" y="52" width="86" height="78" rx="10" fill="#1D4ED8"/>
  <g fill="none" stroke="#93C5FD" stroke-width="1.6">
    <path d="M240 78h24M240 92h24M240 106h24"/>
    <path d="M240 78l24 14M240 92l24 14M240 106l24-28"/>
  </g>
  <g fill="#DBEAFE">
    <circle cx="240" cy="78" r="4"/><circle cx="240" cy="92" r="4"/><circle cx="240" cy="106" r="4"/>
    <circle cx="264" cy="78" r="4"/><circle cx="264" cy="92" r="4"/><circle cx="264" cy="106" r="4"/>
  </g>
  <rect x="230" y="118" width="44" height="5" rx="2.5" fill="#93C5FD"/>

  <path d="M308 91h28" stroke="#BFDBFE" stroke-width="2" stroke-linecap="round"/>
  <path d="M330 86l6 5-6 5" fill="none" stroke="#3B82F6" stroke-width="2" stroke-linecap="round" stroke-linejoin="round"/>

  <rect x="288" y="146" width="94" height="60" rx="8" fill="#FFFFFF" stroke="#1D4ED8" stroke-width="1.5"/>
  <rect x="300" y="158" width="52" height="6" rx="3" fill="#1D4ED8"/>
  <rect x="300" y="172" width="68" height="5" rx="2.5" fill="#DBEAFE"/>
  <rect x="300" y="182" width="44" height="5" rx="2.5" fill="#DBEAFE"/>
  <g fill="#3B82F6">
    <rect x="300" y="194" width="14" height="6" rx="3"/>
    <rect x="318" y="194" width="14" height="6" rx="3"/>
  </g>
  <path d="M336 130v16" stroke="#BFDBFE" stroke-width="2" stroke-linecap="round"/>

  <g stroke="#DBEAFE" stroke-width="1.5" stroke-dasharray="4 5" fill="none">
    <path d="M40 122v58h248"/>
  </g>

  <path d="M0 224h400v76H0z" fill="#0F2A57" opacity=".05"/>
  <path d="M0 250c90 10 160-10 230-4s110 10 170 4v50H0z" fill="#1D4ED8" opacity=".06"/>
</svg>
