<svg xmlns="http://www.w3.org/2000/svg" viewBox="0 0 400 300" preserveAspectRatio="xMidYMid slice" role="img" aria-label="One responsive layout shown at desktop, tablet and phone widths">
  <rect width="400" height="300" fill="#EFF6FF"/>

  <rect x="18" y="40" width="196" height="132" rx="8" fill="#FFFFFF" stroke="#BFDBFE" stroke-width="1.5"/>
  <path d="M18 48a8 8 0 0 1 8-8h180a8 8 0 0 1 8 8v14H18z" fill="#0F2A57"/>
  <circle cx="30" cy="51" r="3" fill="#3B82F6"/>
  <circle cx="40" cy="51" r="3" fill="#1D4ED8"/>
  <rect x="30" y="74" width="76" height="8" rx="4" fill="#1D4ED8"/>
  <rect x="30" y="90" width="120" height="5" rx="2.5" fill="#DBEAFE"/>
  <rect x="30" y="100" width="98" height="5" rx="2.5" fill="#DBEAFE"/>
  <rect x="30" y="116" width="52" height="14" rx="7" fill="#3B82F6"/>
  <g fill="#F5F8FF" stroke="#DBEAFE">
    <rect x="30" y="140" width="54" height="22" rx="5"/>
    <rect x="94" y="140" width="54" height="22" rx="5"/>
    <rect x="158" y="140" width="46" height="22" rx="5"/>
  </g>
  <rect x="18" y="180" width="52" height="5" rx="2.5" fill="#BFDBFE"/>

  <rect x="232" y="40" width="98" height="132" rx="8" fill="#FFFFFF" stroke="#BFDBFE" stroke-width="1.5"/>
  <path d="M232 48a8 8 0 0 1 8-8h82a8 8 0 0 1 8 8v14h-98z" fill="#0F2A57"/>
  <circle cx="244" cy="51" r="3" fill="#3B82F6"/>
  <rect x="244" y="74" width="60" height="8" rx="4" fill="#1D4ED8"/>
  <rect x="244" y="90" width="72" height="5" rx="2.5" fill="#DBEAFE"/>
  <rect x="244" y="100" width="54" height="5" rx="2.5" fill="#DBEAFE"/>
  <rect x="244" y="116" width="52" height="14" rx="7" fill="#3B82F6"/>
  <g fill="#F5F8FF" stroke="#DBEAFE">
    <rect x="244" y="140" width="36" height="22" rx="5"/>
    <rect x="288" y="140" width="30" height="22" rx="5"/>
  </g>
  <rect x="232" y="180" width="42" height="5" rx="2.5" fill="#BFDBFE"/>

  <rect x="346" y="40" width="42" height="132" rx="9" fill="#FFFFFF" stroke="#BFDBFE" stroke-width="1.5"/>
  <path d="M346 49a9 9 0 0 1 9-9h24a9 9 0 0 1 9 9v11h-42z" fill="#0F2A57"/>
  <rect x="362" y="46" width="10" height="3" rx="1.5" fill="#3B82F6"/>
  <rect x="354" y="70" width="26" height="7" rx="3.5" fill="#1D4ED8"/>
  <rect x="354" y="84" width="26" height="4" rx="2" fill="#DBEAFE"/>
  <rect x="354" y="92" width="18" height="4" rx="2" fill="#DBEAFE"/>
  <rect x="354" y="104" width="26" height="12" rx="6" fill="#3B82F6"/>
  <g fill="#F5F8FF" stroke="#DBEAFE">
    <rect x="354" y="124" width="26" height="16" rx="4"/>
    <rect x="354" y="144" width="26" height="16" rx="4"/>
  </g>
  <rect x="346" y="180" width="30" height="5" rx="2.5" fill="#BFDBFE"/>

  <g stroke="#93C5FD" stroke-width="1.5" stroke-dasharray="4 5" fill="none">
    <path d="M222 106h4M338 106h2"/>
  </g>
  <path d="M18 200h370" stroke="#DBEAFE" stroke-width="1.5"/>
  <g fill="#BFDBFE">
    <circle cx="18" cy="200" r="3.5"/>
    <circle cx="232" cy="200" r="3.5"/>
    <circle cx="346" cy="200" r="3.5"/>
  </g>

  <path d="M0 214h400v86H0z" fill="#0F2A57" opacity=".04"/>
  <path d="M0 244c90 10 160-10 230-4s110 10 170 4v56H0z" fill="#3B82F6" opacity=".06"/>
</svg>
